<?xml version="1.0" encoding="utf-8"?>
<!-- Generator: Adobe Illustrator 25.0.1, SVG Export Plug-In . SVG Version: 6.00 Build 0)  -->
<svg version="1.1" id="Warstwa_1" xmlns="http://www.w3.org/2000/svg" xmlns:xlink="http://www.w3.org/1999/xlink" x="0px" y="0px"
	 viewBox="0 0 448 512" style="enable-background:new 0 0 448 512;" xml:space="preserve">
<style type="text/css">
	.st0{fill:#f0f0f0;}
</style>
<g>
	<path class="st0" d="M148.8,201c22.3,0,40.7-18.4,40.8-40.7c0-22.3-18.3-40.6-40.7-40.7c-22.5-0.1-40.7,18-40.7,40.6
		C108.2,182.6,126.5,201,148.8,201z M130.8,184.3c1.8-2.1,3.5-4.2,5.3-5.9c2.4-2.2,4.8-3.6,8.5-2.2c2.4,0.9,5.7,1,8,0.1
		c4.2-1.6,6.9,0.2,9.4,2.6c1.6,1.6,3,3.6,4.5,5.4C158.1,192.5,140.7,192.6,130.8,184.3z M141.3,159c0.1-4,3.4-7.2,7.5-7.2
		c4.1,0,7.4,3.3,7.4,7.3c0.1,4.1-3.4,7.5-7.6,7.4C144.6,166.4,141.2,163.1,141.3,159z M126.4,139.7c11-11.7,28.8-13.2,41.2-3.3
		c12.3,9.8,15.3,27.5,6.6,40.2c-3.3-3.2-6.3-6.1-9.5-9.1c3.2-10.2,1.4-17.5-5.7-22.7c-6-4.4-14.4-4.4-20.5-0.1
		c-6.9,4.9-8.8,12.2-6,21.5c-3.5,3.6-6.4,6.7-9.4,9.9C115.6,168.1,117,149.9,126.4,139.7z"/>
	<g>
		<path class="st0" d="M428.7,164.6c-22.9-50.6-64-91.2-115-113.3c-27.3-11.9-57.5-18.5-89.2-18.5s-61.9,6.6-89.2,18.5
			c-51.7,22.5-93.3,64-116,115.6C7.2,194.4,0.5,224.8,0.5,256.8s6.7,62.4,18.8,89.9c22.1,50.5,62.4,91.2,112.5,114.1
			c28.3,12.9,59.7,20.1,92.7,20.1s64.5-7.2,92.7-20.1c49.4-22.5,89.1-62.4,111.5-111.8c12.7-28.1,19.8-59.3,19.8-92.2
			S441.4,192.7,428.7,164.6z M340.3,431.2c-77.9-0.3-155.7-0.1-233.6-0.2c-10.4,0-18.1-5.4-20.5-14.7c-0.6-2.7-0.6-5.4-0.6-8.1
			c0-101,0-202,0-303.1c0-14.4,2.9-19,16-24.4c81.6,0,163.3,0,244.9,0c1,0.5,2.1,0.8,3.1,1.3c7.7,3.1,12.5,8.7,12.7,17
			c0.4,16.1,0.2,32.2,0.2,48.3c0,3.6-2.1,5.5-5.2,5.4c-3.1-0.1-4.9-2.2-4.9-6.1c-0.1-14.3,0-28.5,0-42.8c0-1.3,0-2.5-0.1-3.7
			c-0.4-5.3-3.9-9-9.3-9c-43.2-0.1-86.5,0-129.6,0c-0.2,0-0.5,0.1-0.9,0.2c0,109.7,0,219.3,0,329.5c1.5,0,2.7,0,4.1,0
			c40.7,0,81.4-0.2,122.1,0.1c10.4,0.1,13.9-3.7,13.8-13.7c-0.2-77.4-0.1-154.8-0.1-232.2c0-1.6,0-3.2,0.4-4.8
			c0.6-2.6,2.6-3.8,5.1-3.7c2.5,0.2,4.3,1.6,4.7,4.2c0.2,1.2,0.2,2.5,0.2,3.7c0,78.1-0.2,156.2,0.1,234.2
			C362.6,423.3,352.3,431.2,340.3,431.2z M247.3,167.1c2.9,5.9,9.3,9.4,15.9,8.1c2.4-0.5,4.8-2.1,6.8-3.6c2.8-2.1,5.5-2.5,7.6-0.3
			c2.1,2.1,1.9,5-0.4,7.7c-7.7,8.6-22.5,9.1-32.3,1c-6.1-5.1-9.3-11.7-9.4-20.6c0.3-9,4.4-16.5,12.9-21.4c8.3-4.8,16.9-4.7,25.4,0
			c3.5,1.9,4.7,4.8,3.3,7.5c-1.5,2.8-4.6,3.4-8.2,1.5c-6.4-3.4-13.4-2.6-18.4,2.1C245.6,153.7,244.3,161.1,247.3,167.1z
			 M251.3,216.2c10.1,0,20.3,0,30.4,0c15.7,0,31.4,0,47.2,0c3.7,0,5.8,1.6,6,4.6s-1.3,4.8-4,5.5c-1,0.3-2,0.2-3,0.2
			c-30.6,0-61.2,0-91.9,0c-0.9,0-1.8,0.1-2.7-0.1c-2.9-0.5-4.8-2.7-4.5-5.5c0.3-2.9,2-4.6,4.9-4.7
			C239.4,216.2,245.4,216.2,251.3,216.2z M293.6,136.2c2.8-2.9,7.2-1.6,8.8,2.7c2.8,8,5.6,16.1,8.4,24.1c0.3,0.8,0.6,1.7,1.3,3.5
			c3-9,5.7-17,8.3-25c0.5-1.3,0.8-2.7,1.4-3.8c1.2-2.5,3.4-3.4,5.9-2.7c2.7,0.7,3.8,2.7,3.6,5.5c-0.1,0.9-0.4,1.7-0.6,2.7
			c-4.1,12.4-8.2,24.8-12.3,37.2c-1,3.1-2.6,5.4-6.1,5.5c-3.7,0.1-5.3-2.3-6.4-5.5c-4.2-12.5-8.6-25-13-37.4
			C292.1,140.5,291.7,138.2,293.6,136.2z M233.3,247.8c0.9-0.1,1.8,0,2.7-0.1c15.3,0,30.5,0,45.8,0c15.2,0,30.3,0,45.4,0
			c1,0,2.1-0.1,3.1,0.1c2.7,0.4,4.4,1.9,4.6,4.7c0.2,2.9-1.4,4.7-4.2,5.4c-0.8,0.2-1.8,0.1-2.7,0.1c-30.9,0-61.7,0-92.6,0
			c-0.8,0-1.6,0.1-2.4-0.1c-2.7-0.6-4.5-2.3-4.4-5.2C228.8,249.7,230.5,248.1,233.3,247.8z M287,284.2c0.1,3.3-2.3,5.2-6.5,5.3
			c-7.5,0-15.1,0-22.6,0c-7.7,0-15.3,0-22.9,0c-4,0-6.2-1.9-6.2-5.2c-0.1-3.3,2.1-5.1,6.2-5.1c15.2,0,30.3,0,45.5,0
			C284.5,279.2,286.9,281,287,284.2z M233.9,310.7c5.2-0.1,10.5,0,15.7,0c10.8,0,21.7,0,32.4,0c15.6,0,31.2,0,46.8,0
			c3.1,0,5.4,1,5.9,4.3c0.6,2.9-1.3,5.5-4.3,5.8c-1.1,0.2-2.3,0.1-3.4,0.1c-30.2,0-60.3,0-90.6,0c-0.9,0-1.8,0-2.7,0
			c-3.2-0.3-5.2-2.3-5.2-5.2C228.6,312.8,230.7,310.7,233.9,310.7z M236.2,352.4c-0.9,0-1.8,0.1-2.7,0c-2.9-0.3-4.8-2.4-4.8-5.1
			c0-2.8,1.9-4.8,4.9-5c1.9-0.1,3.8,0,5.8,0c14.2,0,28.2,0,42.4,0c15.3,0,30.5,0,45.8,0c0.9,0,1.8-0.1,2.7,0.1
			c2.8,0.4,4.6,2,4.7,4.9c0.1,2.8-1.8,4.9-4.8,5.2c-0.9,0.1-1.8,0-2.7,0C297,352.4,266.6,352.4,236.2,352.4z M286.9,379.5
			c0.1,3.2-2.3,5.1-6.2,5.1c-7.7,0-15.3,0-22.9,0c-7.7,0-15.3,0-22.9,0c-4.1,0-6.2-1.9-6.2-5.2c0.1-3.1,2.2-5,6-5
			c15.4,0,30.8,0,46.2,0C284.6,374.4,286.8,376.5,286.9,379.5z"/>
		<path class="st0" d="M175.4,358c-10.6,0.2-21.2,0.1-31.7,0.1c-7.4,0-14.8-0.1-22.2,0.1c-1,0-2.9,0.7-3,1.2
			c-0.2,4.9-0.1,9.9-0.1,14.9c20.6,0,40.6,0,61.1,0c0-4.3-0.2-8.1,0.1-12C179.7,359.1,178.8,357.9,175.4,358z"/>
		<path class="st0" d="M107.5,91c-8.4,0-11.7,3.3-11.7,11.9c0,102,0,204.1,0,306.1c0,8.5,3.3,11.8,11.7,11.8c30.1,0,60.2,0,90.3,0
			c1.1,0,2.3,0,3.7,0c0-110.1,0-219.8,0-329.8c-1.4,0-2.6,0-3.7,0C167.6,91,137.5,91,107.5,91z M148.9,119.6
			c22.4,0.1,40.7,18.4,40.7,40.7c-0.1,22.3-18.5,40.7-40.8,40.7c-22.3,0-40.6-18.4-40.6-40.8C108.2,137.6,126.4,119.5,148.9,119.6z
			 M179.3,303.8c-20.6,0-40.6,0-60.9,0c0,5.3,0,10.4,0,16.3c2.1,0,4.1-0.1,6,0c2.8,0.2,4.4,1.9,4.8,4.6c0.3,2.6-0.9,4.7-3.5,5.2
			c-4.3,0.9-8.7,1.1-12.6-1.3c-3.4-2-5.1-5.1-5.2-9c-0.1-5-0.2-10.1,0-15.1c0.3-6.7,4.8-11,11.5-11c19.5-0.1,38.9-0.1,58.5,0
			c6.9,0,11.5,4.6,11.6,11.6c0.2,4.6,0.2,9.1,0.1,13.7c-0.2,6.8-4.7,11.4-11.4,11.5c-9.7,0.2-19.4,0.1-29.1,0c-3.8,0-5.9-2-6-5.1
			c0-3.3,2.2-5.1,6.2-5.1c8.9,0,17.8-0.1,26.7,0c2.5,0,3.5-0.6,3.4-3.3C179.2,312.6,179.3,308.4,179.3,303.8z M189.6,373.1
			c-0.1,7-4.7,11.5-11.6,11.6c-9.8,0.1-19.6,0-29.4,0c-9.5,0-18.9,0-28.4,0c-7.8,0-12.2-4.3-12.2-12c-0.1-4.3-0.1-8.7,0-13
			c0.2-7.3,4.5-11.8,11.8-11.8c19.4-0.1,38.8-0.1,58.1,0c7.2,0,11.7,4.7,11.8,11.9C189.7,364.2,189.7,368.6,189.6,373.1z
			 M189.6,264.1c-0.1,7.1-4.7,11.6-11.9,11.7c-9.7,0-19.4,0-29.1,0c-9.6,0-19.2,0-28.7,0c-7.5,0-11.9-4.3-12.1-11.9
			c-0.1-4.4-0.1-8.9,0-13.3c0.2-7,4.6-11.5,11.7-11.6c19.5-0.1,38.9-0.1,58.5,0c6.9,0,11.4,4.8,11.5,11.7
			C189.7,255.3,189.7,259.7,189.6,264.1z"/>
		<path class="st0" d="M176,249.3c-12.2,0.1-24.3,0.1-36.6,0.1c-6.1,0-12.2-0.1-18.5,0.1c-0.9,0-2.7,1-2.7,1.6
			c-0.2,4.8-0.1,9.5-0.1,14.4c20.5-0.1,40.6-0.1,61.1-0.1c0-4.5-0.2-8.6,0.1-12.6C179.7,250.1,178.8,249.3,176,249.3z"/>
	</g>
</g>
</svg>
