<?xml version="1.0" encoding="utf-8"?>
<!-- Generator: Adobe Illustrator 25.0.1, SVG Export Plug-In . SVG Version: 6.00 Build 0)  -->
<svg version="1.1" id="Warstwa_1" xmlns="http://www.w3.org/2000/svg" xmlns:xlink="http://www.w3.org/1999/xlink" x="0px" y="0px"
	 viewBox="0 0 448 512" style="enable-background:new 0 0 448 512;" xml:space="preserve">
<style type="text/css">
	.st0{fill:#f0f0f0;}
</style>
<path    class="st0" d="M430.7,169.6C408,115.4,364.6,72,310.4,49.3C283.8,38.2,254.6,32,224,32s-59.8,6.2-86.4,17.3
	C83.4,72,40,115.4,17.3,169.6C6.2,196.2,0,225.4,0,256s6.2,59.8,17.3,86.4C40,396.6,83.4,440,137.6,462.7
	c26.6,11.1,55.8,17.3,86.4,17.3s59.8-6.2,86.4-17.3c54.2-22.7,97.6-66.1,120.3-120.3c11.1-26.6,17.3-55.8,17.3-86.4
	S441.8,196.2,430.7,169.6z M111.6,108.3c19.6,0,35.5,16,35.5,35.5c0,19.7-15.9,35.5-35.5,35.5s-35.5-16-35.5-35.5
	S91.9,108.3,111.6,108.3z M81,403.7V206.3h61.4v197.3h-0.1H81z M371.9,403.7h-61.3v-96c0-22.9-0.5-52.3-31.8-52.3
	c-31.9,0-36.8,24.9-36.8,50.7v97.6h-61.3V206.3h58.8v26.9h0.8c8.2-15.5,28.2-31.8,58-31.8c62,0,73.6,40.9,73.6,94V403.7z"/>
</svg>
